<svg width="256" height="183" viewBox="0 0 256 183" fill="none" xmlns="http://www.w3.org/2000/svg">
<path d="M242.568 180.246C242.568 180.246 261.294 136.246 252.863 80.0742C249.987 60.8677 244.053 40.1002 229.934 25.678C210.342 5.64358 177.213 -4.2409 150.125 3.74758C126.002 10.8513 109.197 29.8239 89.0232 43.5636C67.0233 58.542 45.9588 47.3113 20.2111 69.3113C-5.5366 91.3112 -0.385799 130.615 5.23268 144.677C10.8512 158.739 18.5047 173.003 40.9091 179.203L242.568 180.246Z" fill="#92E3A9"/>
<path opacity="0.7" d="M242.568 180.246C242.568 180.246 261.294 136.246 252.863 80.0742C249.987 60.8677 244.053 40.1002 229.934 25.678C210.342 5.64358 177.213 -4.2409 150.125 3.74758C126.002 10.8513 109.197 29.8239 89.0232 43.5636C67.0233 58.542 45.9588 47.3113 20.2111 69.3113C-5.5366 91.3112 -0.385799 130.615 5.23268 144.677C10.8512 158.739 18.5047 173.003 40.9091 179.203L242.568 180.246Z" fill="white"/>
<path d="M225.768 54.0312H40.9082V179.199H225.768V54.0312Z" fill="white" stroke="#263238" stroke-width="0.632" stroke-linecap="round" stroke-linejoin="round"/>
<path d="M223.828 57.6523H161.412V160.22H223.828V57.6523Z" fill="white" stroke="#263238" stroke-width="0.632" stroke-linecap="round" stroke-linejoin="round"/>
<path d="M105.328 57.6523H42.9121V160.22H105.328V57.6523Z" fill="white" stroke="#263238" stroke-width="0.632" stroke-linecap="round" stroke-linejoin="round"/>
<path d="M223.828 90.7905L161.412 112.595V57.6484H223.828V90.7905Z" fill="#263238" stroke="#263238" stroke-width="0.632" stroke-linecap="round" stroke-linejoin="round"/>
<path d="M105.328 90.7905L42.9121 116.703V57.6484H105.328V90.7905Z" fill="#263238" stroke="#263238" stroke-width="0.632" stroke-linecap="round" stroke-linejoin="round"/>
<path d="M158.852 54.0312H107.824V179.199H158.852V54.0312Z" fill="#92E3A9" stroke="#263238" stroke-width="0.632" stroke-linecap="round" stroke-linejoin="round"/>
<path d="M110.713 122.39H155.964V174.473H110.713V122.39ZM110.713 58.7539V110.837H155.964V58.7539H110.713Z" fill="white" stroke="#263238" stroke-width="0.632" stroke-linecap="round" stroke-linejoin="round"/>
<path d="M155.963 168.532V162.117L124.174 174.473H140.423L155.963 168.532Z" fill="#263238"/>
<path d="M110.713 95.7069L155.964 75.9569V58.7539H110.713V95.7069Z" fill="#263238"/>
<path d="M137.775 110.836L155.964 103.884V98.1328L123.277 110.836H137.775Z" fill="#263238"/>
<path d="M110.713 166.801L155.964 148.239V122.391H110.713V166.801Z" fill="#263238"/>
<path d="M228.96 56.4153H38.3301L57.3912 22.6602H209.899L228.96 56.4153Z" fill="#92E3A9" stroke="#263238" stroke-width="0.632" stroke-linecap="round" stroke-linejoin="round"/>
<path d="M38.3301 56.5039C38.3301 56.7377 38.2922 56.9716 38.2922 57.2054C38.2578 58.6144 38.5055 60.0161 39.0209 61.3279C39.5363 62.6397 40.3089 63.8352 41.2933 64.8439C42.2776 65.8527 43.4538 66.6543 44.7527 67.2016C46.0515 67.7489 47.4467 68.0309 48.8561 68.0309C50.2655 68.0309 51.6607 67.7489 52.9595 67.2016C54.2584 66.6543 55.4346 65.8527 56.4189 64.8439C57.4033 63.8352 58.1759 62.6397 58.6913 61.3279C59.2067 60.0161 59.4545 58.6144 59.42 57.2054C59.42 56.9716 59.42 56.7377 59.3884 56.5039H38.3301Z" fill="white" stroke="#263238" stroke-width="0.632" stroke-linecap="round" stroke-linejoin="round"/>
<path d="M59.502 56.5039C59.502 56.7377 59.4641 56.9716 59.4641 57.2054C59.4296 58.6144 59.6774 60.0161 60.1928 61.3279C60.7082 62.6397 61.4808 63.8352 62.4651 64.8439C63.4495 65.8527 64.6257 66.6543 65.9245 67.2016C67.2234 67.7489 68.6185 68.0309 70.028 68.0309C71.4374 68.0309 72.8326 67.7489 74.1314 67.2016C75.4302 66.6543 76.6065 65.8527 77.5908 64.8439C78.5752 63.8352 79.3478 62.6397 79.8632 61.3279C80.3786 60.0161 80.6263 58.6144 80.5919 57.2054C80.5919 56.9716 80.5919 56.7377 80.5603 56.5039H59.502Z" fill="#92E3A9" stroke="#263238" stroke-width="0.632" stroke-linecap="round" stroke-linejoin="round"/>
<path d="M80.6739 56.5039C80.6739 56.7377 80.636 56.9716 80.636 57.2054C80.6015 58.6144 80.8493 60.0161 81.3647 61.3279C81.8801 62.6397 82.6527 63.8352 83.637 64.8439C84.6214 65.8527 85.7976 66.6543 87.0964 67.2016C88.3952 67.7489 89.7904 68.0309 91.1999 68.0309C92.6093 68.0309 94.0045 67.7489 95.3033 67.2016C96.6021 66.6543 97.7783 65.8527 98.7627 64.8439C99.7471 63.8352 100.52 62.6397 101.035 61.3279C101.55 60.0161 101.798 58.6144 101.764 57.2054C101.764 56.9716 101.764 56.7377 101.732 56.5039H80.6739Z" fill="white" stroke="#263238" stroke-width="0.632" stroke-linecap="round" stroke-linejoin="round"/>
<path d="M101.846 56.5039C101.846 56.7377 101.808 56.9716 101.808 57.2054C101.773 58.6144 102.021 60.0161 102.537 61.3279C103.052 62.6397 103.825 63.8352 104.809 64.8439C105.793 65.8527 106.969 66.6543 108.268 67.2016C109.567 67.7489 110.962 68.0309 112.372 68.0309C113.781 68.0309 115.176 67.7489 116.475 67.2016C117.774 66.6543 118.95 65.8527 119.935 64.8439C120.919 63.8352 121.692 62.6397 122.207 61.3279C122.722 60.0161 122.97 58.6144 122.936 57.2054C122.936 56.9716 122.936 56.7377 122.904 56.5039H101.846Z" fill="#92E3A9" stroke="#263238" stroke-width="0.632" stroke-linecap="round" stroke-linejoin="round"/>
<path d="M123.018 56.5039C123.018 56.7377 122.98 56.9716 122.98 57.2054C122.945 58.6144 123.193 60.0161 123.708 61.3279C124.224 62.6397 124.996 63.8352 125.981 64.8439C126.965 65.8527 128.141 66.6543 129.44 67.2016C130.739 67.7489 132.134 68.0309 133.544 68.0309C134.953 68.0309 136.348 67.7489 137.647 67.2016C138.946 66.6543 140.122 65.8527 141.106 64.8439C142.091 63.8352 142.863 62.6397 143.379 61.3279C143.894 60.0161 144.142 58.6144 144.107 57.2054C144.107 56.9716 144.107 56.7377 144.076 56.5039H123.018Z" fill="white" stroke="#263238" stroke-width="0.632" stroke-linecap="round" stroke-linejoin="round"/>
<path d="M144.19 56.5039C144.19 56.7377 144.152 56.9716 144.152 57.2054C144.117 58.6144 144.365 60.0161 144.88 61.3279C145.396 62.6397 146.168 63.8352 147.153 64.8439C148.137 65.8527 149.313 66.6543 150.612 67.2016C151.911 67.7489 153.306 68.0309 154.715 68.0309C156.125 68.0309 157.52 67.7489 158.819 67.2016C160.118 66.6543 161.294 65.8527 162.278 64.8439C163.263 63.8352 164.035 62.6397 164.551 61.3279C165.066 60.0161 165.314 58.6144 165.279 57.2054C165.279 56.9716 165.279 56.7377 165.248 56.5039H144.19Z" fill="#92E3A9" stroke="#263238" stroke-width="0.632" stroke-linecap="round" stroke-linejoin="round"/>
<path d="M165.361 56.5039C165.361 56.7377 165.323 56.9716 165.323 57.2054C165.289 58.6144 165.537 60.0161 166.052 61.3279C166.568 62.6397 167.34 63.8352 168.325 64.8439C169.309 65.8527 170.485 66.6543 171.784 67.2016C173.083 67.7489 174.478 68.0309 175.887 68.0309C177.297 68.0309 178.692 67.7489 179.991 67.2016C181.29 66.6543 182.466 65.8527 183.45 64.8439C184.435 63.8352 185.207 62.6397 185.723 61.3279C186.238 60.0161 186.486 58.6144 186.451 57.2054C186.451 56.9716 186.451 56.7377 186.42 56.5039H165.361Z" fill="white" stroke="#263238" stroke-width="0.632" stroke-linecap="round" stroke-linejoin="round"/>
<path d="M186.533 56.5039C186.533 56.7377 186.495 56.9716 186.495 57.2054C186.461 58.6144 186.709 60.0161 187.224 61.3279C187.739 62.6397 188.512 63.8352 189.496 64.8439C190.481 65.8527 191.657 66.6543 192.956 67.2016C194.255 67.7489 195.65 68.0309 197.059 68.0309C198.469 68.0309 199.864 67.7489 201.163 67.2016C202.461 66.6543 203.638 65.8527 204.622 64.8439C205.606 63.8352 206.379 62.6397 206.894 61.3279C207.41 60.0161 207.658 58.6144 207.623 57.2054C207.623 56.9716 207.623 56.7377 207.592 56.5039H186.533Z" fill="#92E3A9" stroke="#263238" stroke-width="0.632" stroke-linecap="round" stroke-linejoin="round"/>
<path d="M207.705 56.5039C207.705 56.7377 207.667 56.9716 207.667 57.2054C207.633 58.6144 207.881 60.0161 208.396 61.3279C208.911 62.6397 209.684 63.8352 210.668 64.8439C211.653 65.8527 212.829 66.6543 214.128 67.2016C215.426 67.7489 216.822 68.0309 218.231 68.0309C219.641 68.0309 221.036 67.7489 222.335 67.2016C223.633 66.6543 224.81 65.8527 225.794 64.8439C226.778 63.8352 227.551 62.6397 228.066 61.3279C228.582 60.0161 228.829 58.6144 228.795 57.2054C228.795 56.9716 228.795 56.7377 228.763 56.5039H207.705Z" fill="white" stroke="#263238" stroke-width="0.632" stroke-linecap="round" stroke-linejoin="round"/>
<path d="M118.127 82.1183L133.39 73.9023L148.551 82.1183" stroke="white" stroke-width="0.632" stroke-linecap="round" stroke-linejoin="round"/>
<path d="M134.881 73.9017C134.881 73.6067 134.794 73.3183 134.63 73.073C134.466 72.8278 134.233 72.6366 133.961 72.5237C133.688 72.4108 133.388 72.3813 133.099 72.4388C132.81 72.4964 132.544 72.6384 132.335 72.847C132.127 73.0556 131.985 73.3214 131.927 73.6107C131.87 73.9 131.899 74.1999 132.012 74.4725C132.125 74.745 132.316 74.9779 132.561 75.1418C132.807 75.3057 133.095 75.3932 133.39 75.3932C133.786 75.3932 134.165 75.2361 134.445 74.9563C134.724 74.6766 134.881 74.2973 134.881 73.9017V73.9017Z" fill="white" stroke="#263238" stroke-width="0.632" stroke-linecap="round" stroke-linejoin="round"/>
<path d="M148.551 82.1172H118.127V97.1714H148.551V82.1172Z" fill="#92E3A9" stroke="#263238" stroke-width="0.632" stroke-linecap="round" stroke-linejoin="round"/>
<path d="M124.229 88.9855C124.229 89.4813 124.139 89.9098 123.96 90.2709C123.781 90.632 123.536 90.9105 123.224 91.1064C122.911 91.3023 122.555 91.4002 122.154 91.4002C121.753 91.4002 121.397 91.3023 121.084 91.1064C120.772 90.9105 120.527 90.632 120.348 90.2709C120.168 89.9098 120.079 89.4813 120.079 88.9855C120.079 88.4897 120.168 88.0612 120.348 87.7001C120.527 87.339 120.772 87.0605 121.084 86.8646C121.397 86.6687 121.753 86.5708 122.154 86.5708C122.555 86.5708 122.911 86.6687 123.224 86.8646C123.536 87.0605 123.781 87.339 123.96 87.7001C124.139 88.0612 124.229 88.4897 124.229 88.9855ZM123.678 88.9855C123.678 88.5785 123.61 88.2349 123.474 87.9549C123.339 87.6749 123.156 87.4629 122.925 87.3191C122.696 87.1752 122.439 87.1033 122.154 87.1033C121.869 87.1033 121.612 87.1752 121.38 87.3191C121.151 87.4629 120.968 87.6749 120.832 87.9549C120.697 88.2349 120.63 88.5785 120.63 88.9855C120.63 89.3925 120.697 89.7361 120.832 90.0161C120.968 90.2961 121.151 90.5081 121.38 90.6519C121.612 90.7958 121.869 90.8677 122.154 90.8677C122.439 90.8677 122.696 90.7958 122.925 90.6519C123.156 90.5081 123.339 90.2961 123.474 90.0161C123.61 89.7361 123.678 89.3925 123.678 88.9855ZM125.186 91.3359V86.6351H126.774C127.143 86.6351 127.445 86.7016 127.679 86.8348C127.915 86.9664 128.089 87.1446 128.202 87.3696C128.315 87.5945 128.372 87.8455 128.372 88.1225C128.372 88.3994 128.315 88.6512 128.202 88.8776C128.09 89.1041 127.918 89.2847 127.683 89.4193C127.449 89.5525 127.149 89.619 126.784 89.619H125.645V89.114H126.765C127.018 89.114 127.221 89.0704 127.374 88.9832C127.527 88.896 127.638 88.7782 127.706 88.6297C127.777 88.4798 127.812 88.3107 127.812 88.1225C127.812 87.9342 127.777 87.7659 127.706 87.6175C127.638 87.469 127.526 87.3528 127.371 87.2686C127.217 87.1829 127.012 87.1401 126.756 87.1401H125.755V91.3359H125.186ZM129.289 91.3359V86.6351H132.126V87.1401H129.858V88.7284H131.979V89.2334H129.858V90.831H132.163V91.3359H129.289ZM136.88 86.6351V91.3359H136.329L133.767 87.645H133.721V91.3359H133.152V86.6351H133.703L136.274 90.3352H136.32V86.6351H136.88ZM138.019 91.3359V86.6351H140.856V87.1401H138.588V88.7284H140.709V89.2334H138.588V90.831H140.893V91.3359H138.019ZM143.333 91.3359H141.882V86.6351H143.397C143.853 86.6351 144.243 86.7292 144.567 86.9174C144.892 87.1041 145.14 87.3726 145.313 87.7231C145.486 88.072 145.573 88.4897 145.573 88.9763C145.573 89.466 145.486 89.8876 145.311 90.2411C145.137 90.593 144.883 90.8639 144.549 91.0536C144.215 91.2418 143.81 91.3359 143.333 91.3359ZM142.451 90.831H143.296C143.684 90.831 144.007 90.756 144.262 90.606C144.518 90.4561 144.708 90.2426 144.834 89.9656C144.959 89.6886 145.022 89.3589 145.022 88.9763C145.022 88.5968 144.96 88.2701 144.836 87.9962C144.712 87.7208 144.527 87.5096 144.281 87.3627C144.034 87.2143 143.727 87.1401 143.36 87.1401H142.451V90.831Z" fill="#263238"/>
<path d="M154.118 120.416C155.829 120.416 157.215 119.03 157.215 117.319C157.215 115.609 155.829 114.223 154.118 114.223C152.408 114.223 151.021 115.609 151.021 117.319C151.021 119.03 152.408 120.416 154.118 120.416Z" fill="white" stroke="#263238" stroke-width="0.632" stroke-linecap="round" stroke-linejoin="round"/>
<path d="M154.118 118.111C154.554 118.111 154.908 117.758 154.908 117.321C154.908 116.885 154.554 116.531 154.118 116.531C153.682 116.531 153.328 116.885 153.328 117.321C153.328 117.758 153.682 118.111 154.118 118.111Z" fill="white" stroke="#263238" stroke-width="0.632" stroke-linecap="round" stroke-linejoin="round"/>
<path d="M247.919 182.536H18.7309C18.4527 182.538 18.1768 182.484 17.9193 182.379C17.6617 182.273 17.4275 182.118 17.2301 181.922C17.0328 181.726 16.8762 181.493 16.7693 181.236C16.6624 180.979 16.6074 180.703 16.6074 180.425V180.425C16.6074 180.147 16.6625 179.872 16.7694 179.615C16.8764 179.359 17.0331 179.126 17.2305 178.93C17.428 178.734 17.6622 178.58 17.9197 178.475C18.1773 178.37 18.453 178.318 18.7309 178.32H247.919C248.478 178.32 249.013 178.542 249.408 178.937C249.802 179.331 250.024 179.867 250.024 180.425C250.024 180.984 249.802 181.52 249.408 181.915C249.013 182.311 248.478 182.534 247.919 182.536V182.536Z" fill="#263238"/>
<path d="M53.5303 81.9846V86.2442H52.1968V81.5738C52.1976 81.311 52.1466 81.0506 52.0466 80.8075C51.9466 80.5645 51.7996 80.3436 51.6141 80.1575C51.4286 79.9714 51.2081 79.8237 50.9654 79.7229C50.7227 79.6222 50.4625 79.5703 50.1997 79.5703V79.5703C49.6683 79.5703 49.1588 79.7814 48.783 80.1571C48.4073 80.5328 48.1962 81.0424 48.1962 81.5738V87.3755H46.9322V84.2977C46.9322 83.9166 46.7813 83.551 46.5124 83.281C46.2436 83.0109 45.8787 82.8584 45.4976 82.8567V82.8567C45.1154 82.8567 44.7489 83.0085 44.4787 83.2788C44.2085 83.549 44.0566 83.9155 44.0566 84.2977V89.0187C44.0583 89.264 44.1569 89.4987 44.331 89.6716C44.505 89.8444 44.7404 89.9414 44.9857 89.9414H48.1457V93.4301H52.1462V88.9113H54.9207C55.2191 88.9113 55.5052 88.7928 55.7162 88.5818C55.9272 88.3708 56.0457 88.0847 56.0457 87.7863V87.7863V81.9846C56.0457 81.6493 55.9125 81.3278 55.6755 81.0908C55.4384 80.8537 55.1169 80.7206 54.7817 80.7206C54.4486 80.7239 54.1304 80.8585 53.8961 81.0952C53.6617 81.3319 53.5303 81.6515 53.5303 81.9846V81.9846Z" fill="#92E3A9"/>
<path d="M53.7568 93.1523H46.7227V99.6746H53.7568V93.1523Z" fill="white" stroke="#263238" stroke-width="0.632" stroke-linecap="round" stroke-linejoin="round"/>
<path d="M54.1692 91.6016H46.3008V93.6998H54.1692V91.6016Z" fill="white" stroke="#263238" stroke-width="0.632" stroke-linecap="round" stroke-linejoin="round"/>
<path d="M51.5464 117.374L48.9805 113.272L50.6932 113.443L50.5226 111.047L52.4059 113.443L52.5766 106.086L53.9417 110.877L55.6544 104.715L56.1663 111.901L59.5917 108.311L57.1965 113.955L59.5917 113.101L54.9718 118.233L51.5464 117.374Z" fill="#92E3A9"/>
<path d="M57.2724 117.934H50.2383V124.456H57.2724V117.934Z" fill="white" stroke="#263238" stroke-width="0.632" stroke-linecap="round" stroke-linejoin="round"/>
<path d="M57.6887 116.391H49.8203V118.489H57.6887V116.391Z" fill="white" stroke="#263238" stroke-width="0.632" stroke-linecap="round" stroke-linejoin="round"/>
<path d="M87.9858 117.374L85.4199 113.272L87.1263 113.443L86.9557 111.047L88.839 113.443L89.0097 106.086L90.3748 110.877L92.0875 104.715L92.5994 111.901L96.0249 108.311L93.6296 113.955L96.0249 113.101L91.405 118.233L87.9858 117.374Z" fill="#92E3A9"/>
<path d="M93.706 117.934H86.6719V124.456H93.706V117.934Z" fill="white" stroke="#263238" stroke-width="0.632" stroke-linecap="round" stroke-linejoin="round"/>
<path d="M94.1243 116.391H86.2559V118.489H94.1243V116.391Z" fill="white" stroke="#263238" stroke-width="0.632" stroke-linecap="round" stroke-linejoin="round"/>
<path d="M70.1954 116.521C68.9896 116.503 67.7871 116.389 66.5994 116.18C64.7034 115.839 64.3747 114.638 65.2342 114.284C66.0938 113.93 68.9946 114.455 68.9946 114.455C68.9946 114.455 65.2343 114.455 64.7223 112.23C64.2104 110.006 66.0875 110.176 66.6183 110.694C67.1492 111.213 68.5143 112.23 68.5143 112.23C68.5143 112.23 65.6071 109.323 65.6071 107.61C65.6071 105.898 67.5031 106.075 68.0024 107.098C68.5017 108.122 69.7151 111.206 69.7151 111.206C69.7151 111.206 67.8191 105.733 70.227 106.586C72.635 107.44 72.123 110.006 72.123 110.524V112.742C72.123 112.742 74.5183 108.129 75.3779 109.152C76.2374 110.176 74.177 112.06 74.177 112.06C74.177 112.06 75.3778 107.636 78.285 107.781C81.1922 107.926 78.4557 110.006 77.9438 110.865C77.4318 111.725 75.2072 113.602 75.2072 113.602C75.2072 113.602 80.1684 111.377 82.5574 111.377C84.9463 111.377 82.7343 114.114 81.3629 114.284C79.9915 114.455 77.4255 114.796 77.4255 114.796C77.4255 114.796 80.851 116.338 79.4795 116.692C78.1081 117.046 74.689 116.351 74.689 116.351L70.1954 116.521Z" fill="#92E3A9"/>
<path d="M75.7451 117.934H68.7109V124.456H75.7451V117.934Z" fill="white" stroke="#263238" stroke-width="0.632" stroke-linecap="round" stroke-linejoin="round"/>
<path d="M76.1614 116.391H68.293V118.489H76.1614V116.391Z" fill="white" stroke="#263238" stroke-width="0.632" stroke-linecap="round" stroke-linejoin="round"/>
<path d="M80.7812 84.9541V88.1141H81.7672V84.6508C81.7688 84.2579 81.926 83.8818 82.2044 83.6046C82.4827 83.3275 82.8595 83.1719 83.2523 83.1719V83.1719C83.6446 83.1719 84.0207 83.3277 84.2981 83.605C84.5754 83.8824 84.7312 84.2585 84.7312 84.6508V88.9484H85.6476V86.6795C85.6476 86.3979 85.7595 86.1278 85.9586 85.9287C86.1577 85.7296 86.4278 85.6177 86.7094 85.6177C86.9916 85.6177 87.2623 85.7294 87.4624 85.9283C87.6625 86.1273 87.7758 86.3973 87.7775 86.6795V90.1808C87.7758 90.3624 87.7025 90.536 87.5735 90.6638C87.4445 90.7916 87.2702 90.8633 87.0886 90.8633H84.7312V93.4482H81.7672V90.1049H79.7132C79.4913 90.1032 79.2791 90.014 79.1229 89.8565C78.9666 89.699 78.8789 89.4862 78.8789 89.2644V89.2644V84.9731C78.8789 84.7211 78.9786 84.4793 79.1562 84.3005C79.3338 84.1217 79.5749 84.0204 79.8269 84.0188V84.0188C80.0763 84.0203 80.3153 84.1188 80.4933 84.2933C80.6714 84.4679 80.7747 84.7048 80.7812 84.9541V84.9541Z" fill="#92E3A9"/>
<path d="M86.4443 93.1523H79.4102V99.6746H86.4443V93.1523Z" fill="white" stroke="#263238" stroke-width="0.632" stroke-linecap="round" stroke-linejoin="round"/>
<path d="M86.8547 91.6016H78.9863V93.6998H86.8547V91.6016Z" fill="white" stroke="#263238" stroke-width="0.632" stroke-linecap="round" stroke-linejoin="round"/>
<path d="M53.625 134.591V137.751H54.6109V134.287C54.6109 133.895 54.7667 133.519 55.0441 133.242C55.3214 132.964 55.6976 132.809 56.0898 132.809V132.809C56.4826 132.809 56.8594 132.964 57.1377 133.241C57.4161 133.519 57.5733 133.895 57.575 134.287V138.585H58.4851V136.304C58.4867 136.021 58.6 135.751 58.8001 135.552C59.0002 135.353 59.271 135.242 59.5531 135.242C59.8347 135.242 60.1048 135.354 60.3039 135.553C60.503 135.752 60.6149 136.022 60.6149 136.304V139.799C60.6157 139.889 60.5987 139.978 60.5648 140.062C60.5308 140.145 60.4807 140.221 60.4172 140.285C60.3538 140.349 60.2782 140.4 60.195 140.435C60.1118 140.47 60.0225 140.487 59.9323 140.487H57.575V143.072H54.6109V139.723H52.5569C52.3356 139.723 52.1235 139.635 51.967 139.478C51.8105 139.322 51.7227 139.11 51.7227 138.888V134.591C51.7227 134.339 51.8225 134.098 52.0003 133.92C52.1781 133.743 52.4192 133.643 52.6707 133.643V133.643C52.9227 133.643 53.1645 133.743 53.3432 133.92C53.522 134.098 53.6233 134.339 53.625 134.591Z" fill="#92E3A9"/>
<path d="M59.2803 142.789H52.2461V149.311H59.2803V142.789Z" fill="white" stroke="#263238" stroke-width="0.632" stroke-linecap="round" stroke-linejoin="round"/>
<path d="M59.6985 141.246H51.8301V143.344H59.6985V141.246Z" fill="white" stroke="#263238" stroke-width="0.632" stroke-linecap="round" stroke-linejoin="round"/>
<path d="M88.5043 134.591V137.751H89.4966V134.287C89.4966 133.895 89.6524 133.519 89.9297 133.242C90.2071 132.964 90.5832 132.809 90.9755 132.809V132.809C91.3683 132.809 91.7451 132.964 92.0234 133.241C92.3018 133.519 92.459 133.895 92.4607 134.287V138.585H93.3707V136.304C93.3724 136.021 93.4857 135.751 93.6858 135.552C93.8859 135.353 94.1566 135.242 94.4388 135.242C94.7204 135.242 94.9905 135.354 95.1896 135.553C95.3887 135.752 95.5006 136.022 95.5006 136.304V139.799C95.5014 139.889 95.4844 139.978 95.4504 140.062C95.4165 140.145 95.3664 140.221 95.3029 140.285C95.2394 140.349 95.1639 140.4 95.0807 140.435C94.9975 140.47 94.9082 140.487 94.818 140.487H92.448V143.072H89.4839V139.723H87.4299C87.2087 139.723 86.9965 139.635 86.84 139.478C86.6836 139.322 86.5957 139.11 86.5957 138.888V138.888V134.591C86.5957 134.339 86.6956 134.098 86.8734 133.92C87.0511 133.743 87.2923 133.643 87.5437 133.643V133.643C87.6693 133.641 87.7939 133.664 87.9104 133.711C88.0269 133.758 88.1329 133.828 88.2222 133.916C88.3116 134.004 88.3826 134.109 88.431 134.225C88.4794 134.341 88.5043 134.465 88.5043 134.591V134.591Z" fill="#92E3A9"/>
<path d="M94.167 142.789H87.1328V149.311H94.167V142.789Z" fill="white" stroke="#263238" stroke-width="0.632" stroke-linecap="round" stroke-linejoin="round"/>
<path d="M94.5852 141.246H86.7168V143.344H94.5852V141.246Z" fill="white" stroke="#263238" stroke-width="0.632" stroke-linecap="round" stroke-linejoin="round"/>
<path d="M70.6197 142.654C69.9566 141.568 69.1294 140.592 68.1675 139.759C66.6128 138.42 66.1641 135.304 66.1641 135.304C66.1641 135.304 66.834 135.083 68.1675 136.416C69.0492 137.347 69.7978 138.396 70.3921 139.532C69.978 137.848 69.6803 136.137 69.501 134.413C69.501 133.079 71.732 129.742 71.732 129.742C72.0584 130.906 72.2805 132.097 72.3956 133.3V138.42C73.201 136.851 74.2554 135.423 75.5177 134.191C76.8267 133.158 78.3317 132.402 79.9417 131.967C79.9417 131.967 80.1629 134.64 79.2717 135.525C78.3806 136.41 74.6013 139.532 74.6013 139.532L79.7205 138.647L74.6013 141.763C74.6013 141.763 73.6406 143.027 72.819 142.654C72.0983 142.463 71.3404 142.463 70.6197 142.654V142.654Z" fill="#92E3A9"/>
<path d="M75.5361 142.789H68.502V149.311H75.5361V142.789Z" fill="white" stroke="#263238" stroke-width="0.632" stroke-linecap="round" stroke-linejoin="round"/>
<path d="M75.9543 141.246H68.0859V143.344H75.9543V141.246Z" fill="white" stroke="#263238" stroke-width="0.632" stroke-linecap="round" stroke-linejoin="round"/>
<path d="M92.5998 91.7354C92.5998 91.7354 90.3815 89.8394 89.6926 89.1695C89.0037 88.4996 87.2973 86.6036 88.6688 87.2735C89.6867 87.8271 90.6589 88.4611 91.576 89.1695C91.576 89.1695 90.3815 85.5797 90.3815 84.5496C90.3815 83.5194 92.0879 84.2083 92.9474 85.921C93.8069 87.6337 94.3125 88.8282 94.3125 88.8282C94.3125 88.8282 92.7704 81.9837 94.1419 81.6424C95.5133 81.3011 95.8546 86.0664 95.8546 86.0664C95.8546 86.0664 97.0491 77.6861 98.7618 79.5631C100.475 81.4401 97.561 86.4077 97.561 86.4077C97.561 86.4077 100.986 84.0124 100.298 85.8957C100.064 86.4735 99.7159 86.9984 99.2751 87.4392C98.8344 87.88 98.3095 88.2277 97.7316 88.4617C97.7316 88.4617 102.693 87.2609 101.328 89.1442C99.9626 91.0276 95.5133 92.5697 95.5133 92.5697L92.5998 91.7354Z" fill="#92E3A9"/>
<path d="M98.5732 93.1523H91.5391V99.6746H98.5732V93.1523Z" fill="white" stroke="#263238" stroke-width="0.632" stroke-linecap="round" stroke-linejoin="round"/>
<path d="M98.9895 91.6016H91.1211V93.6998H98.9895V91.6016Z" fill="white" stroke="#263238" stroke-width="0.632" stroke-linecap="round" stroke-linejoin="round"/>
<path d="M65.234 91.7354C65.234 91.7354 63.0094 89.8394 62.3268 89.1695C61.6443 88.4996 59.9316 86.6036 61.2967 87.2735C62.3157 87.8254 63.288 88.4595 64.2039 89.1695C64.2039 89.1695 63.0094 85.5797 63.0094 84.5496C63.0094 83.5194 64.7221 84.2083 65.5753 85.921C66.4285 87.6337 66.9404 88.8282 66.9404 88.8282C66.9404 88.8282 65.4047 81.9837 66.7698 81.6424C68.1349 81.3011 68.4825 86.0664 68.4825 86.0664C68.4825 86.0664 69.6833 77.6861 71.3897 79.5631C73.0961 81.4401 70.1952 86.4077 70.1952 86.4077C70.1952 86.4077 73.6144 84.0124 72.9318 85.8957C72.6969 86.473 72.3489 86.9974 71.9082 87.4381C71.4676 87.8788 70.9431 88.2268 70.3659 88.4617C70.3659 88.4617 75.3271 87.2609 73.9556 89.1442C72.5842 91.0276 68.1412 92.5697 68.1412 92.5697L65.234 91.7354Z" fill="#92E3A9"/>
<path d="M71.2002 93.1523H64.166V99.6746H71.2002V93.1523Z" fill="white" stroke="#263238" stroke-width="0.632" stroke-linecap="round" stroke-linejoin="round"/>
<path d="M71.6184 91.6016H63.75V93.6998H71.6184V91.6016Z" fill="white" stroke="#263238" stroke-width="0.632" stroke-linecap="round" stroke-linejoin="round"/>
<path d="M105.72 99.3203H43.1523V102.48H105.72V99.3203Z" fill="#92E3A9" stroke="#263238" stroke-width="0.632" stroke-linecap="round" stroke-linejoin="round"/>
<path d="M105.72 124.234H43.1523V127.394H105.72V124.234Z" fill="#92E3A9" stroke="#263238" stroke-width="0.632" stroke-linecap="round" stroke-linejoin="round"/>
<path d="M105.72 149.145H43.1523V152.305H105.72V149.145Z" fill="#92E3A9" stroke="#263238" stroke-width="0.632" stroke-linecap="round" stroke-linejoin="round"/>
<path d="M45.3643 99.3203H43.1523V179.262H45.3643V99.3203Z" fill="#92E3A9" stroke="#263238" stroke-width="0.632" stroke-linecap="round" stroke-linejoin="round"/>
<path d="M105.72 99.3203H103.508V179.262H105.72V99.3203Z" fill="#92E3A9" stroke="#263238" stroke-width="0.632" stroke-linecap="round" stroke-linejoin="round"/>
<path d="M195.634 161.466C194.216 159.285 193.223 156.855 192.708 154.305C192.078 151.228 191.618 148.118 191.33 144.99C190.983 141.886 190.294 136.837 190.294 136.837C190.294 136.837 193.738 141.495 194.256 143.631C194.775 145.767 195.634 148.093 195.982 150.81C196.329 153.528 196.841 155.272 197.012 156.441C197.182 157.611 197.189 160.511 197.189 160.511C197.189 160.511 197.359 151.784 196.841 147.707C196.323 143.631 195.811 140.332 195.982 137.229C196.152 134.125 196.152 133.544 196.323 131.604C196.494 129.664 196.671 125.973 196.671 125.973C196.671 125.973 198.737 132.375 199.597 136.451C200.456 140.528 200.115 141.886 200.463 145.375C200.81 148.864 200.981 149.647 200.633 151.392C200.286 153.136 200.463 153.332 199.944 155.664C199.778 156.665 199.489 157.641 199.085 158.571C199.085 158.571 201.493 152.365 202.182 149.091C202.725 146.487 203.534 143.946 204.596 141.507C205.074 140.36 205.652 139.256 206.321 138.208L209.077 133.557C209.077 133.557 209.247 140.54 208.388 143.037C207.528 145.533 207.181 147.499 206.144 149.831C205.382 151.419 204.916 153.132 204.766 154.887C204.596 156.441 204.596 157.794 203.907 158.767C203.218 159.74 203.047 161.093 202.529 161.674C202.112 162.111 201.65 162.503 201.151 162.844C201.151 162.844 205.285 156.441 206.321 154.887C207.358 153.332 207.351 152.946 208.906 151.973C210.461 151 211.314 150.425 211.314 150.425C211.314 150.425 208.217 157.408 207.351 158.767C206.485 160.126 205.974 161.87 204.766 162.844C204.092 163.378 203.459 163.961 202.87 164.588H192.708C192.708 164.588 190.641 161.87 190.294 159.349C189.946 156.827 189.775 154.293 189.775 154.293C190.744 155.081 191.666 155.925 192.537 156.821C193.397 157.775 195.634 161.466 195.634 161.466Z" fill="#92E3A9"/>
<path d="M207.871 164.43H190.32V179.193H207.871V164.43Z" fill="white" stroke="#263238" stroke-width="0.632" stroke-linecap="round" stroke-linejoin="round"/>
<path d="M208.92 162.48H189.277V165.685H208.92V162.48Z" fill="white" stroke="#263238" stroke-width="0.632" stroke-linecap="round" stroke-linejoin="round"/>
<path d="M215.846 114.486C217.795 113.9 219.442 112.582 220.44 110.807C221.405 109.106 221.737 107.118 221.376 105.195C221.376 105.195 217.129 107.003 216.042 109.474C215.615 110.472 215.4 111.548 215.41 112.634C213.792 109.562 207.048 107.534 207.048 107.534C207.048 107.534 208.015 112.969 210.151 114.713C211.744 116.015 213.76 117.425 214.689 118.057V122.866C213.766 121.486 212.459 120.408 210.929 119.763C208.401 118.79 204.135 120.534 204.135 120.534C205.243 122.155 206.896 123.325 208.793 123.833C210.774 124.38 212.891 124.128 214.689 123.131V130.633C213.769 129.25 212.461 128.168 210.929 127.524C208.401 126.551 204.135 128.301 204.135 128.301C205.247 129.919 206.898 131.088 208.793 131.6C210.775 132.143 212.891 131.889 214.689 130.892V136.454C213.769 135.07 212.461 133.989 210.929 133.345C208.401 132.371 204.135 134.122 204.135 134.122C205.247 135.739 206.898 136.909 208.793 137.421C210.775 137.964 212.891 137.71 214.689 136.713V145.182C213.765 143.802 212.458 142.721 210.929 142.073C208.401 141.106 204.135 142.85 204.135 142.85C205.243 144.471 206.896 145.641 208.793 146.149C210.774 146.693 212.89 146.441 214.689 145.447V152.943C213.766 151.563 212.459 150.484 210.929 149.84C208.401 148.867 204.135 150.611 204.135 150.611C205.243 152.232 206.896 153.402 208.793 153.91C210.774 154.457 212.891 154.205 214.689 153.208V165.747C214.689 165.831 214.722 165.911 214.782 165.971C214.841 166.03 214.921 166.063 215.005 166.063C215.089 166.063 215.169 166.03 215.229 165.971C215.288 165.911 215.321 165.831 215.321 165.747V118.215C215.542 117.842 215.985 116.805 215.846 114.486Z" fill="#92E3A9"/>
<path d="M219.271 119.745C217.671 120.422 216.317 121.573 215.391 123.044C216.292 123.564 217.289 123.9 218.322 124.033C219.354 124.165 220.403 124.091 221.407 123.815C223.304 123.307 224.957 122.137 226.065 120.516C226.065 120.516 221.793 118.771 219.271 119.745Z" fill="#92E3A9"/>
<path d="M219.271 127.312C217.673 127.992 216.319 129.142 215.391 130.611C216.292 131.131 217.288 131.468 218.321 131.601C219.354 131.735 220.403 131.662 221.407 131.388C223.302 130.876 224.953 129.706 226.065 128.089C226.065 128.089 221.793 126.345 219.271 127.312Z" fill="#92E3A9"/>
<path d="M219.271 133.132C217.673 133.812 216.319 134.963 215.391 136.431C216.292 136.952 217.288 137.289 218.321 137.422C219.354 137.555 220.403 137.483 221.407 137.209C223.302 136.696 224.953 135.527 226.065 133.909C226.065 133.909 221.793 132.184 219.271 133.132Z" fill="#92E3A9"/>
<path d="M219.271 142.054C217.673 142.734 216.319 143.884 215.391 145.353C216.292 145.875 217.288 146.213 218.321 146.346C219.354 146.48 220.403 146.406 221.407 146.13C223.304 145.622 224.957 144.452 226.065 142.831C226.065 142.831 221.793 141.087 219.271 142.054Z" fill="#92E3A9"/>
<path d="M219.271 149.823C217.671 150.5 216.317 151.651 215.391 153.122C216.292 153.642 217.289 153.978 218.322 154.111C219.354 154.243 220.403 154.169 221.407 153.893C223.304 153.385 224.957 152.215 226.065 150.594C226.065 150.594 221.793 148.849 219.271 149.823Z" fill="#92E3A9"/>
<g opacity="0.5">
<path d="M215.846 114.486C217.795 113.9 219.442 112.582 220.44 110.807C221.405 109.106 221.737 107.118 221.376 105.195C221.376 105.195 217.129 107.003 216.042 109.474C215.615 110.472 215.4 111.548 215.41 112.634C213.792 109.562 207.048 107.534 207.048 107.534C207.048 107.534 208.015 112.969 210.151 114.713C211.744 116.015 213.76 117.425 214.689 118.057V122.866C213.766 121.486 212.459 120.408 210.929 119.763C208.401 118.79 204.135 120.534 204.135 120.534C205.243 122.155 206.896 123.325 208.793 123.833C210.774 124.38 212.891 124.128 214.689 123.131V130.633C213.769 129.25 212.461 128.168 210.929 127.524C208.401 126.551 204.135 128.301 204.135 128.301C205.247 129.919 206.898 131.088 208.793 131.6C210.775 132.143 212.891 131.889 214.689 130.892V136.454C213.769 135.07 212.461 133.989 210.929 133.345C208.401 132.371 204.135 134.122 204.135 134.122C205.247 135.739 206.898 136.909 208.793 137.421C210.775 137.964 212.891 137.71 214.689 136.713V145.182C213.765 143.802 212.458 142.721 210.929 142.073C208.401 141.106 204.135 142.85 204.135 142.85C205.243 144.471 206.896 145.641 208.793 146.149C210.774 146.693 212.89 146.441 214.689 145.447V152.943C213.766 151.563 212.459 150.484 210.929 149.84C208.401 148.867 204.135 150.611 204.135 150.611C205.243 152.232 206.896 153.402 208.793 153.91C210.774 154.457 212.891 154.205 214.689 153.208V165.747C214.689 165.831 214.722 165.911 214.782 165.971C214.841 166.03 214.921 166.063 215.005 166.063C215.089 166.063 215.169 166.03 215.229 165.971C215.288 165.911 215.321 165.831 215.321 165.747V118.215C215.542 117.842 215.985 116.805 215.846 114.486Z" fill="black"/>
<path d="M219.271 119.745C217.671 120.422 216.317 121.573 215.391 123.044C216.292 123.564 217.289 123.9 218.322 124.033C219.354 124.165 220.403 124.091 221.407 123.815C223.304 123.307 224.957 122.137 226.065 120.516C226.065 120.516 221.793 118.771 219.271 119.745Z" fill="black"/>
<path d="M219.271 127.308C217.673 127.988 216.319 129.138 215.391 130.607C216.292 131.127 217.288 131.464 218.321 131.597C219.354 131.731 220.403 131.658 221.407 131.384C223.302 130.872 224.953 129.702 226.065 128.085C226.065 128.085 221.793 126.341 219.271 127.308Z" fill="black"/>
<path d="M219.271 133.128C217.673 133.808 216.319 134.959 215.391 136.427C216.292 136.948 217.288 137.285 218.321 137.418C219.354 137.551 220.403 137.479 221.407 137.205C223.302 136.692 224.953 135.523 226.065 133.906C226.065 133.906 221.793 132.18 219.271 133.128Z" fill="black"/>
<path d="M219.271 142.054C217.673 142.734 216.319 143.884 215.391 145.353C216.292 145.875 217.288 146.213 218.321 146.346C219.354 146.48 220.403 146.406 221.407 146.13C223.304 145.622 224.957 144.452 226.065 142.831C226.065 142.831 221.793 141.087 219.271 142.054Z" fill="black"/>
<path d="M219.271 149.823C217.671 150.5 216.317 151.651 215.391 153.122C216.292 153.642 217.289 153.978 218.322 154.111C219.354 154.243 220.403 154.169 221.407 153.893C223.304 153.385 224.957 152.215 226.065 150.594C226.065 150.594 221.793 148.849 219.271 149.823Z" fill="black"/>
</g>
<path d="M219.05 164.43H212.016V179.193H219.05V164.43Z" fill="white" stroke="#263238" stroke-width="0.632" stroke-linecap="round" stroke-linejoin="round"/>
<path d="M219.468 162.48H211.6V165.685H219.468V162.48Z" fill="white" stroke="#263238" stroke-width="0.632" stroke-linecap="round" stroke-linejoin="round"/>
<path d="M181.264 164.43H163.713V179.193H181.264V164.43Z" fill="white" stroke="#263238" stroke-width="0.632" stroke-linecap="round" stroke-linejoin="round"/>
<path d="M182.312 162.48H162.67V165.685H182.312V162.48Z" fill="white" stroke="#263238" stroke-width="0.632" stroke-linecap="round" stroke-linejoin="round"/>
<path d="M166.689 136.606C166.262 135.293 165.36 134.187 164.161 133.503C162.107 132.361 159.963 131.386 157.752 130.59C157.752 130.59 157.563 131.753 159.307 133.889C161.051 136.025 164.742 138.743 164.742 138.743C163.454 138.886 162.158 138.95 160.862 138.932C158.334 138.932 156.008 142.231 156.008 142.231C156.008 142.231 159.503 142.813 160.666 142.813C161.829 142.813 166.101 141.454 166.101 141.454C166.101 141.454 164.742 143.59 164.742 145.145C164.898 147.162 165.155 149.17 165.513 151.161C165.513 151.161 167.845 150.188 168.427 148.248C168.889 146.267 169.215 144.257 169.4 142.231C169.905 143.006 170.565 143.667 171.34 144.172C172.889 145.334 177.161 146.889 177.161 146.889C176.779 145.145 176.053 143.495 175.025 142.035C173.807 140.44 172.104 139.284 170.171 138.743C170.619 138.718 171.057 138.601 171.458 138.4C171.859 138.199 172.215 137.917 172.503 137.573C173.47 136.411 175.031 132.334 175.031 132.334C173.731 132.009 172.359 132.147 171.151 132.726C169.21 133.712 166.689 136.606 166.689 136.606Z" fill="#92E3A9"/>
<path opacity="0.5" d="M166.689 136.606C166.262 135.293 165.36 134.187 164.161 133.503C162.107 132.361 159.963 131.386 157.752 130.59C157.752 130.59 157.563 131.753 159.307 133.889C161.051 136.025 164.742 138.743 164.742 138.743C163.454 138.886 162.158 138.95 160.862 138.932C158.334 138.932 156.008 142.231 156.008 142.231C156.008 142.231 159.503 142.813 160.666 142.813C161.829 142.813 166.101 141.454 166.101 141.454C166.101 141.454 164.742 143.59 164.742 145.145C164.898 147.162 165.155 149.17 165.513 151.161C165.513 151.161 167.845 150.188 168.427 148.248C168.889 146.267 169.215 144.257 169.4 142.231C169.905 143.006 170.565 143.667 171.34 144.172C172.889 145.334 177.161 146.889 177.161 146.889C176.779 145.145 176.053 143.495 175.025 142.035C173.807 140.44 172.104 139.284 170.171 138.743C170.619 138.718 171.057 138.601 171.458 138.4C171.859 138.199 172.215 137.917 172.503 137.573C173.47 136.411 175.031 132.334 175.031 132.334C173.731 132.009 172.359 132.147 171.151 132.726C169.21 133.712 166.689 136.606 166.689 136.606Z" fill="black"/>
<path d="M175.905 151.939C175.645 151.139 175.098 150.463 174.369 150.043C173.122 149.348 171.82 148.756 170.476 148.273C170.476 148.273 170.356 148.981 171.418 150.277C172.421 151.365 173.528 152.354 174.723 153.228C173.94 153.319 173.153 153.359 172.366 153.348C170.83 153.348 169.414 155.352 169.414 155.352C169.414 155.352 171.538 155.706 172.245 155.706C173.367 155.516 174.472 155.239 175.551 154.878C175.111 155.555 174.829 156.321 174.723 157.121C174.818 158.346 174.977 159.566 175.197 160.774C175.995 160.438 176.63 159.803 176.966 159.005C177.244 157.802 177.441 156.581 177.554 155.352C177.861 155.82 178.261 156.22 178.73 156.527C179.853 157.192 181.039 157.747 182.269 158.183C182.04 157.122 181.599 156.119 180.973 155.232C180.234 154.261 179.197 153.557 178.022 153.228C178.294 153.213 178.56 153.143 178.803 153.021C179.047 152.899 179.263 152.729 179.438 152.52C180.053 151.521 180.568 150.462 180.973 149.36C180.184 149.163 179.351 149.245 178.616 149.594C177.602 150.239 176.689 151.029 175.905 151.939V151.939Z" fill="#92E3A9"/>
<path opacity="0.5" d="M175.905 151.939C175.645 151.139 175.098 150.463 174.369 150.043C173.122 149.348 171.82 148.756 170.476 148.273C170.476 148.273 170.356 148.981 171.418 150.277C172.421 151.365 173.528 152.354 174.723 153.228C173.94 153.319 173.153 153.359 172.366 153.348C170.83 153.348 169.414 155.352 169.414 155.352C169.414 155.352 171.538 155.706 172.245 155.706C173.367 155.516 174.472 155.239 175.551 154.878C175.111 155.555 174.829 156.321 174.723 157.121C174.818 158.346 174.977 159.566 175.197 160.774C175.995 160.438 176.63 159.803 176.966 159.005C177.244 157.802 177.441 156.581 177.554 155.352C177.861 155.82 178.261 156.22 178.73 156.527C179.853 157.192 181.039 157.747 182.269 158.183C182.04 157.122 181.599 156.119 180.973 155.232C180.234 154.261 179.197 153.557 178.022 153.228C178.294 153.213 178.56 153.143 178.803 153.021C179.047 152.899 179.263 152.729 179.438 152.52C180.053 151.521 180.568 150.462 180.973 149.36C180.184 149.163 179.351 149.245 178.616 149.594C177.602 150.239 176.689 151.029 175.905 151.939V151.939Z" fill="black"/>
<path d="M170.274 159.291C169.961 158.325 169.298 157.511 168.416 157.01C166.907 156.169 165.332 155.453 163.707 154.867C163.707 154.867 163.562 155.72 164.845 157.294C166.063 158.607 167.403 159.803 168.845 160.865C167.897 160.97 166.943 161.017 165.989 161.004C164.131 161.004 162.418 163.431 162.418 163.431C162.418 163.431 164.99 163.861 165.843 163.861C166.697 163.861 169.844 162.862 169.844 162.862C169.844 162.862 168.845 164.436 168.845 165.573C168.96 167.057 169.15 168.533 169.414 169.997C169.414 169.997 171.127 169.283 171.557 167.855C171.898 166.399 172.136 164.92 172.271 163.431C172.642 164.002 173.128 164.488 173.699 164.859C174.843 165.719 177.984 166.863 177.984 166.863C177.705 165.578 177.17 164.364 176.41 163.292C175.517 162.117 174.266 161.265 172.846 160.865C173.175 160.846 173.497 160.761 173.792 160.613C174.086 160.465 174.347 160.258 174.559 160.005C175.273 159.152 176.41 156.15 176.41 156.15C175.454 155.909 174.444 156.01 173.554 156.435C172.132 157.149 170.274 159.291 170.274 159.291Z" fill="#92E3A9"/>
<path d="M164.939 150.985C164.629 150.018 163.969 149.202 163.088 148.697C161.576 147.858 159.999 147.141 158.373 146.555C158.373 146.555 158.234 147.414 159.517 148.988C160.731 150.301 162.069 151.495 163.511 152.552C162.565 152.662 161.613 152.711 160.661 152.698C158.803 152.698 157.09 155.125 157.09 155.125C157.09 155.125 159.656 155.554 160.515 155.554C161.375 155.554 164.497 154.556 164.497 154.556C164.497 154.556 163.492 156.123 163.492 157.267C163.608 158.751 163.8 160.227 164.067 161.691C164.067 161.691 165.78 160.977 166.21 159.549C166.547 158.092 166.786 156.614 166.924 155.125C167.297 155.694 167.783 156.18 168.352 156.553C169.49 157.412 172.631 158.55 172.631 158.55C172.353 157.267 171.82 156.053 171.063 154.979C170.166 153.806 168.913 152.955 167.493 152.552C167.821 152.534 168.143 152.449 168.437 152.303C168.732 152.156 168.993 151.951 169.205 151.699C169.919 150.84 171.063 147.844 171.063 147.844C170.107 147.603 169.097 147.704 168.207 148.128C166.797 148.843 164.939 150.985 164.939 150.985Z" fill="#92E3A9"/>
<path d="M174.223 144.133C173.231 143.918 172.195 144.081 171.316 144.588C169.828 145.469 168.414 146.469 167.088 147.578C167.088 147.578 167.758 148.134 169.761 147.818C171.51 147.428 173.218 146.874 174.861 146.162C174.478 147.032 174.039 147.877 173.547 148.69C172.612 150.295 173.844 153 173.844 153C173.844 153 175.506 150.997 175.942 150.257C176.378 149.518 177.092 146.301 177.092 146.301C177.535 147.17 178.163 147.932 178.932 148.532C180.27 149.179 181.642 149.757 183.04 150.264C183.04 150.264 183.286 148.425 182.269 147.338C181.182 146.307 180.025 145.355 178.805 144.487C179.485 144.455 180.15 144.28 180.758 143.975C182.079 143.419 184.645 141.283 184.645 141.283C183.396 140.876 182.079 140.725 180.771 140.841C179.306 141.023 177.941 141.675 176.878 142.699C177.025 142.407 177.111 142.089 177.132 141.763C177.153 141.437 177.107 141.11 176.998 140.803C176.618 139.766 174.609 137.238 174.609 137.238C173.921 137.944 173.501 138.867 173.421 139.848C173.307 141.454 174.223 144.133 174.223 144.133Z" fill="#92E3A9"/>
<path d="M199.945 169.105H176.232V179.199H199.945V169.105Z" fill="white" stroke="#263238" stroke-width="0.632" stroke-linecap="round" stroke-linejoin="round"/>
<path d="M201.36 167.77H174.822V169.956H201.36V167.77Z" fill="white" stroke="#263238" stroke-width="0.632" stroke-linecap="round" stroke-linejoin="round"/>
<path d="M185.119 163.6C185.119 163.6 186.288 163.012 184.348 161.653C182.407 160.294 181.82 160.301 181.82 160.301L183.76 163.6C182.504 163.179 181.2 162.918 179.879 162.822C178.943 162.823 178.017 163.021 177.162 163.404L181.137 165.49C181.137 165.49 176.966 165.148 176.188 165.148C175.195 165.306 174.221 165.567 173.281 165.926L176.188 166.507L171.727 167.866L176.384 168.251V170.192L179.292 168.447C179.44 168.857 179.638 169.247 179.879 169.61C180.265 170.192 181.624 171.746 181.624 171.746L183.368 169.029C183.368 169.029 183.949 170.779 184.531 170.779C185.188 170.849 185.837 170.978 186.471 171.165L186.92 168.675L189.77 170.779V169.029L191.325 170.779L192.684 168.643L192.88 170.388L195.408 169.225L196.57 171.55L197.152 168.643L198.782 168.909L199.092 168.062L199.87 168.447C200.861 168.855 201.906 169.117 202.973 169.225C202.495 168.548 201.978 167.9 201.424 167.284C200.775 166.792 200.054 166.4 199.288 166.122L200.647 165.54C200.647 165.54 197.929 164.567 197.152 164.567C196.398 164.691 195.673 164.955 195.016 165.344C195.635 164.938 196.164 164.409 196.57 163.789C196.879 163.096 197.138 162.382 197.348 161.653C197.348 161.653 194.434 161.653 194.049 162.627C193.663 163.6 192.886 165.155 192.886 165.155L191.527 162.247C191.125 162.639 190.796 163.099 190.554 163.606C190.399 164.115 190.27 164.632 190.168 165.155L189.005 162.829C188.646 162.236 188.186 161.71 187.647 161.274C187.543 161.982 187.478 162.695 187.451 163.41V164.769L186.477 162.437V164.377L185.119 163.6Z" fill="#92E3A9"/>
<path opacity="0.3" d="M185.119 163.6C185.119 163.6 186.288 163.012 184.348 161.653C182.407 160.294 181.82 160.301 181.82 160.301L183.76 163.6C182.504 163.179 181.2 162.918 179.879 162.822C178.943 162.823 178.017 163.021 177.162 163.404L181.137 165.49C181.137 165.49 176.966 165.148 176.188 165.148C175.195 165.306 174.221 165.567 173.281 165.926L176.188 166.507L171.727 167.866L176.384 168.251V170.192L179.292 168.447C179.44 168.857 179.638 169.247 179.879 169.61C180.265 170.192 181.624 171.746 181.624 171.746L183.368 169.029C183.368 169.029 183.949 170.779 184.531 170.779C185.188 170.849 185.837 170.978 186.471 171.165L186.92 168.675L189.77 170.779V169.029L191.325 170.779L192.684 168.643L192.88 170.388L195.408 169.225L196.57 171.55L197.152 168.643L198.782 168.909L199.092 168.062L199.87 168.447C200.861 168.855 201.906 169.117 202.973 169.225C202.495 168.548 201.978 167.9 201.424 167.284C200.775 166.792 200.054 166.4 199.288 166.122L200.647 165.54C200.647 165.54 197.929 164.567 197.152 164.567C196.398 164.691 195.673 164.955 195.016 165.344C195.635 164.938 196.164 164.409 196.57 163.789C196.879 163.096 197.138 162.382 197.348 161.653C197.348 161.653 194.434 161.653 194.049 162.627C193.663 163.6 192.886 165.155 192.886 165.155L191.527 162.247C191.125 162.639 190.796 163.099 190.554 163.606C190.399 164.115 190.27 164.632 190.168 165.155L189.005 162.829C188.646 162.236 188.186 161.71 187.647 161.274C187.543 161.982 187.478 162.695 187.451 163.41V164.769L186.477 162.437V164.377L185.119 163.6Z" fill="black"/>
</svg>
